<svg xmlns="http://www.w3.org/2000/svg" viewBox="40 118 115 100" width="32" height="32">
  <rect x="40" y="118" width="115" height="100" rx="22" fill="#EDE6D6"/>
  <ellipse cx="96" cy="185" rx="20" ry="24" fill="#C8DBC8"/>
  <ellipse cx="96" cy="152" rx="18" ry="16" fill="#C8DBC8"/>
  <ellipse cx="81" cy="136" rx="6" ry="8.5" fill="#C8DBC8"/>
  <ellipse cx="81" cy="136" rx="3.5" ry="5.5" fill="#E0EDE0" opacity="0.8"/>
  <ellipse cx="111" cy="136" rx="6" ry="8.5" fill="#C8DBC8"/>
  <ellipse cx="111" cy="136" rx="3.5" ry="5.5" fill="#E0EDE0" opacity="0.8"/>
  <ellipse cx="87" cy="149" rx="11" ry="11.5" fill="#FFFFFF"/>
  <ellipse cx="87" cy="149" rx="8.5" ry="9" fill="#12251A"/>
  <ellipse cx="87" cy="149" rx="5" ry="5.5" fill="#070D0A"/>
  <circle cx="85" cy="147" r="1.8" fill="#FFFFFF" opacity="0.95"/>
  <ellipse cx="105" cy="149" rx="11" ry="11.5" fill="#FFFFFF"/>
  <ellipse cx="105" cy="149" rx="8.5" ry="9" fill="#12251A"/>
  <ellipse cx="105" cy="149" rx="5" ry="5.5" fill="#070D0A"/>
  <circle cx="103" cy="147" r="1.8" fill="#FFFFFF" opacity="0.95"/>
  <ellipse cx="83" cy="206" rx="6" ry="4" fill="#B0C8B0"/>
  <ellipse cx="109" cy="206" rx="6" ry="4" fill="#B0C8B0"/>
  <circle cx="79" cy="209" r="2" fill="#B0C8B0"/>
  <circle cx="84" cy="210" r="2" fill="#B0C8B0"/>
  <circle cx="89" cy="209" r="2" fill="#B0C8B0"/>
  <circle cx="105" cy="209" r="2" fill="#B0C8B0"/>
  <circle cx="110" cy="210" r="2" fill="#B0C8B0"/>
  <circle cx="115" cy="209" r="2" fill="#B0C8B0"/>
  <path d="M108 200 Q145 210 143 192 Q141 175 126 180" fill="none" stroke="#B0C8B0" stroke-width="6" stroke-linecap="round"/>
  <path d="M108 200 Q145 210 143 192 Q141 175 126 180" fill="none" stroke="#12251A" stroke-width="1.2" stroke-linecap="round" opacity="0.2"/>
</svg>
